<?xml version="1.0" standalone="no"?>
<!DOCTYPE svg PUBLIC "-//W3C//DTD SVG 20010904//EN"
 "http://www.w3.org/TR/2001/REC-SVG-20010904/DTD/svg10.dtd">
<svg version="1.0" xmlns="http://www.w3.org/2000/svg"
 width="514.000000pt" height="519.000000pt" viewBox="0 0 514.000000 519.000000"
 preserveAspectRatio="xMidYMid meet">
<metadata>
Created by potrace 1.16, written by Peter Selinger 2001-2019
</metadata>
<g transform="translate(0.000000,519.000000) scale(0.100000,-0.100000)"
fill="#000000" stroke="none">
<path d="M4139 5154 c-24 -25 -24 -29 -27 -230 l-3 -204 -433 0 -433 0 -24
-26 c-24 -25 -24 -29 -27 -230 l-3 -204 -433 0 -433 0 -24 -26 c-24 -25 -24
-29 -27 -230 l-3 -204 -203 0 -203 0 -24 -26 c-24 -25 -24 -29 -27 -230 l-3
-204 -658 0 -658 0 -24 -26 c-24 -25 -24 -29 -27 -230 l-3 -204 -203 0 c-144
0 -205 -3 -214 -12 -9 -9 -12 -192 -12 -760 0 -411 1 -749 3 -750 1 -1 96 -4
212 -7 l210 -6 5 -208 c5 -205 5 -209 29 -228 22 -18 49 -19 731 -19 682 0
709 1 731 19 l24 19 5 434 5 433 150 0 150 0 5 -662 c5 -618 6 -663 23 -680
15 -16 43 -19 225 -23 l207 -5 6 -210 c3 -116 6 -211 7 -212 1 -2 342 -3 757
-3 415 0 756 1 757 3 1 1 4 96 7 212 l6 210 207 5 c182 4 210 7 225 23 17 17
18 60 18 737 l0 718 -24 26 -24 26 -203 0 -203 0 -3 204 c-3 201 -3 205 -27
230 l-24 26 -204 0 -203 0 2 378 3 377 207 5 c182 4 210 7 225 23 17 16 18 53
23 455 l5 437 435 5 c239 3 436 7 438 8 1 1 2 237 2 525 0 393 -3 526 -12 535
-9 9 -131 12 -488 12 l-477 0 -24 -26z m961 -484 l0 -460 -460 0 -460 0 0
-455 0 -455 -227 -2 -228 -3 -3 -917 -2 -918 -225 0 -225 0 -2 890 c-1 490 -2
902 -2 918 l-1 27 228 3 227 2 0 455 0 455 -225 0 -225 0 0 -230 0 -230 -460
0 -460 0 0 -225 0 -225 -230 0 -230 0 0 -460 0 -460 -230 0 -230 0 0 460 0
460 230 0 230 0 0 230 0 230 230 0 230 0 0 230 0 230 461 0 461 0 -4 225 -3
225 458 0 457 0 0 230 0 230 460 0 460 0 0 -460z m-1452 -952 l2 -378 -203 0
-204 0 -24 -26 -24 -26 -3 -434 -3 -434 -203 0 -203 0 -24 -26 c-24 -25 -24
-29 -27 -230 l-3 -204 -154 0 -154 0 -3 434 -3 434 -24 26 -24 26 -204 0 -204
0 3 148 3 147 207 5 c181 4 210 7 225 23 16 15 19 44 23 225 l5 207 437 5
c402 5 439 6 455 23 16 16 18 41 21 215 1 108 5 203 7 210 4 10 39 12 152 10
l148 -3 3 -377z m-2678 -2028 l0 -230 -230 0 -230 0 0 230 0 230 230 0 230 0
0 -230z m2300 -915 l0 -235 -235 0 -235 0 0 228 c0 126 3 232 7 235 3 4 109 7
235 7 l228 0 0 -235z"/>
</g>
</svg>
